<?xml version="1.0" encoding="utf-8"?>
<svg xmlns="http://www.w3.org/2000/svg" height="1000" width="1000" viewBox="0 0 1000 1000">
  <g>
    <path id="path1" transform="rotate(0,500,500) translate(0,29.2031728154333) scale(31.2499962880977,31.2499962880977)  " fill="#FFE4E4" d="M15.055819,7.3340033C15.280823,7.3340033 15.462797,7.517002 15.462797,7.7420004 15.462797,7.9669989 15.280823,8.1489981 15.055819,8.1489981 14.829809,8.1489981 14.647835,7.9669989 14.647835,7.7420004 14.647835,7.517002 14.829809,7.3340033 15.055819,7.3340033z M11.42885,6.3569983C11.958842,7.3340033 14.117812,7.9050025 14.117812,7.9050025 16.236804,9.900997 17.092782,7.4969977 17.092782,7.4969977 17.458774,5.9490012 16.399796,6.5200003 16.399796,6.5200003 13.873827,8.3940009 11.42885,6.3569983 11.42885,6.3569983z M5.6659212,4.0430029C6.7129054,4.0229987 7.9059143,4.3740042 8.8419075,5.6840018 8.8419075,5.6840018 9.8808651,8.0069998 9.3298778,10.328998 9.3298778,10.328998 4.0129571,9.3510016 2.3019798,11.674 2.30198,11.674 1.2629913,12.713001 2.667973,15.218998 2.6679728,15.218998 -3.6869595,10.328998 3.2189607,4.7059973 3.2189607,4.7059973 4.3209367,4.0679968 5.6659212,4.0430029z M20.881736,0L19.333751,0.89699904C19.333751,0.89699922,24.792699,1.1409987,27.156651,5.6229971L26.748668,5.6229971C26.748668,5.6229971 28.092645,9.229 28.826646,14.912998 28.826646,14.912998 30.538629,23.041004 31.210618,23.225002 31.210618,23.225002 32.249606,25.730999 31.94361,28.174999 31.94361,28.174999 30.965627,28.357998 27.482667,25.119999 27.482667,25.119999 27.543672,28.114002 26.748668,29.091999 26.748668,29.091999 23.876695,26.830997 23.814713,26.035999 23.814713,26.035999 23.203729,29.091999 22.408725,29.52 22.408725,29.52 20.880729,28.603001 19.964755,25.792003 19.964755,25.792003 19.169751,29.764004 17.947782,30.131 17.947782,30.131 17.031777,29.397999 15.869805,26.158001 15.869805,26.158001 15.136812,28.909 13.975816,29.580997 13.975816,29.580997 12.630832,28.420002 12.202858,25.486004 12.202858,25.486004 11.102865,28.114002 9.1468963,29.031002 9.1468963,29.031002 8.1689119,27.746998 8.2908888,25.913998 8.2908888,25.913998 6.8859076,27.258999 3.8299456,27.381 3.8299456,27.381 8.2299156,17.541004 8.4128961,14.241001 8.4128961,14.241001 6.7019191,11.674 2.973969,11.979 2.9739687,11.979 3.6459575,10.146 10.186861,11.124004 10.186861,11.124004 11.34685,6.3360022 8.4128961,3.9929997 8.4128961,3.9929999 11.34685,0.24499879 20.881736,0z" />
  </g>
</svg>

